<svg width="44" height="40" viewBox="0 0 44 40" fill="none" xmlns="http://www.w3.org/2000/svg">
<rect x="1" y="0.999466" width="42.0004" height="37.9995" rx="6" stroke="#F87537" stroke-width="2"/>
<path d="M14.844 34.1487C13.8596 34.6878 11.9558 35.5455 10.9837 34.5182C10.3081 33.8042 10.3457 32.0041 10.3937 31.0201C10.5463 27.9052 11.998 24.833 13.5327 22.4187C15.3675 19.5329 18.1136 17.3309 21.1062 17.2077C23.3779 17.1142 25.6158 18.2263 27.3895 19.9597C29.1633 21.6932 30.5035 24.014 31.5329 26.4854C32.0351 27.6913 32.4766 28.9805 32.4935 30.333C32.5101 31.6854 32.0198 33.1196 31.0451 33.7646C30.2637 34.2819 29.2985 34.2211 28.4529 33.8859C27.6073 33.5511 26.8453 32.9681 26.0624 32.454C24.6181 31.5059 23.0156 30.7676 21.3787 30.8889C19.0119 31.0647 17.0073 32.964 14.844 34.1487Z" fill="#F87537"/>
<path d="M12.5979 18.9283C12.8886 21.8499 11.0688 23.4393 9.21021 21.2429C8.07041 19.896 7.18316 17.5001 7.02416 15.5736C6.94415 14.6028 7.04154 13.5056 7.64174 12.8606C8.21688 12.2424 9.11615 12.2389 9.80248 12.6558C10.4888 13.0726 10.9921 13.8343 11.3876 14.6355C12.032 15.9415 12.4474 17.4149 12.5979 18.9283Z" fill="#F87537"/>
<path d="M19.4682 11.0608C19.8511 13.0272 19.3964 16.062 17.2182 15.8387C14.6109 15.5715 14.308 10.0841 14.59 7.82278C14.6955 6.97476 14.9657 6.02791 15.6214 5.71801C16.0728 5.50445 16.5986 5.66844 16.9971 6.00422C17.3954 6.33968 17.6894 6.82636 17.9636 7.31303C18.6126 8.46627 19.2031 9.69964 19.4682 11.0608Z" fill="#F87537"/>
<path d="M28.5359 9.77476C28.5594 8.47187 28.3212 7.10413 27.6198 6.12112C26.9183 5.1381 25.6786 4.66328 24.7318 5.26718C23.7489 5.89384 23.3872 7.37288 23.2252 8.71069C23.0048 10.5274 22.6493 13.8658 23.7372 15.3963C24.4181 16.3544 25.4393 15.8559 26.2202 15.3025C27.7522 14.2163 28.4988 11.8449 28.5359 9.77476Z" fill="#F87537"/>
<path d="M34.9527 21.6947C33.4187 23.4593 30.2833 22.9125 30.5602 19.8687C30.7473 17.8097 31.8963 15.6884 32.9377 14.1087C33.5729 13.1453 34.5023 12.215 35.4918 12.4834C36.2766 12.6964 36.8164 13.641 36.9537 14.6072C37.0907 15.5734 36.9033 16.5611 36.6904 17.5067C36.3461 19.035 35.8982 20.6073 34.9527 21.6947Z" fill="#F87537"/>
</svg>
