<svg width="44" height="40" viewBox="0 0 44 40" fill="none" xmlns="http://www.w3.org/2000/svg">
<rect x="1" y="1" width="42.0004" height="37.9995" rx="6" stroke="#F87537" stroke-width="2"/>
<path d="M14.8445 34.1493C13.8601 34.6883 11.9563 35.546 10.9842 34.5187C10.3086 33.8048 10.3461 32.0046 10.3942 31.0206C10.5468 27.9057 11.9985 24.8335 13.5332 22.4192C15.368 19.5334 18.1141 17.3314 21.1067 17.2082C23.3783 17.1147 25.6163 18.2268 27.39 19.9602C29.1638 21.6937 30.504 24.0145 31.5333 26.4859C32.0356 27.6919 32.4771 28.981 32.494 30.3335C32.5106 31.686 32.0203 33.1201 31.0456 33.7652C30.2642 34.2824 29.299 34.2216 28.4534 33.8864C27.6078 33.5516 26.8458 32.9686 26.0628 32.4545C24.6186 31.5064 23.0161 30.7681 21.3792 30.8894C19.0124 31.0652 17.0078 32.9645 14.8445 34.1493Z" stroke="#F87537" stroke-width="1.3"/>
<path d="M12.5979 18.9288C12.8886 21.8504 11.0688 23.4398 9.21021 21.2434C8.07041 19.8965 7.18316 17.5006 7.02416 15.5741C6.94415 14.6033 7.04154 13.5062 7.64174 12.8611C8.21688 12.2429 9.11615 12.2394 9.80248 12.6563C10.4888 13.0731 10.9921 13.8348 11.3876 14.636C12.032 15.942 12.4474 17.4155 12.5979 18.9288Z" stroke="#F87537" stroke-width="1.3"/>
<path d="M19.4677 11.0614C19.8506 13.0277 19.3959 16.0625 17.2178 15.8393C14.6104 15.5721 14.3075 10.0846 14.5895 7.82334C14.6951 6.97533 14.9652 6.02848 15.6209 5.71858C16.0723 5.50501 16.5981 5.66901 16.9966 6.00478C17.3949 6.34025 17.6889 6.82692 17.9631 7.3136C18.6122 8.46684 19.2026 9.7002 19.4677 11.0614Z" stroke="#F87537" stroke-width="1.3"/>
<path d="M28.5354 9.7753C28.5589 8.47241 28.3207 7.10467 27.6193 6.12165C26.9179 5.13864 25.6781 4.66381 24.7313 5.26771C23.7484 5.89437 23.3867 7.37341 23.2247 8.71122C23.0043 10.5279 22.6488 13.8664 23.7367 15.3968C24.4176 16.3549 25.4388 15.8564 26.2198 15.303C27.7517 14.2168 28.4983 11.8455 28.5354 9.7753Z" stroke="#F87537" stroke-width="1.3"/>
<path d="M34.9527 21.6953C33.4187 23.4599 30.2833 22.9131 30.5602 19.8692C30.7473 17.8103 31.8963 15.689 32.9377 14.1093C33.5729 13.1459 34.5023 12.2156 35.4918 12.484C36.2766 12.6969 36.8164 13.6416 36.9537 14.6078C37.0907 15.574 36.9033 16.5617 36.6904 17.5073C36.3461 19.0356 35.8982 20.6078 34.9527 21.6953Z" stroke="#F87537" stroke-width="1.3"/>
</svg>
